<svg width="42" height="42" viewBox="0 0 42 42" fill="none" xmlns="http://www.w3.org/2000/svg">
<circle cx="21" cy="21" r="20" stroke="#BABABA" stroke-width="2"/>
<path fill-rule="evenodd" clip-rule="evenodd" d="M28.4728 15.1412C28.5348 15.0792 28.584 15.0056 28.6175 14.9247C28.6511 14.8437 28.6684 14.7569 28.6684 14.6692C28.6684 14.5816 28.6511 14.4948 28.6175 14.4138C28.584 14.3328 28.5348 14.2592 28.4728 14.1972C28.4109 14.1352 28.3373 14.0861 28.2563 14.0525C28.1753 14.019 28.0885 14.0017 28.0008 14.0017C27.9132 14.0017 27.8264 14.019 27.7454 14.0525C27.6644 14.0861 27.5908 14.1352 27.5288 14.1972L21.3342 20.3932L15.1395 14.1972C15.0775 14.1352 15.0039 14.0861 14.923 14.0525C14.842 14.019 14.7552 14.0017 14.6675 14.0017C14.5799 14.0017 14.4931 14.019 14.4121 14.0525C14.3311 14.0861 14.2575 14.1352 14.1955 14.1972C14.1335 14.2592 14.0844 14.3328 14.0508 14.4138C14.0173 14.4948 14 14.5816 14 14.6692C14 14.7569 14.0173 14.8437 14.0508 14.9247C14.0844 15.0056 14.1335 15.0792 14.1955 15.1412L20.3915 21.3359L14.1955 27.5306C14.0703 27.6557 14 27.8255 14 28.0026C14 28.1796 14.0703 28.3494 14.1955 28.4746C14.3207 28.5997 14.4905 28.6701 14.6675 28.6701C14.8445 28.6701 15.0143 28.5997 15.1395 28.4746L21.3342 22.2786L27.5288 28.4746C27.654 28.5997 27.8238 28.6701 28.0008 28.6701C28.1779 28.6701 28.3477 28.5997 28.4728 28.4746C28.598 28.3494 28.6684 28.1796 28.6684 28.0026C28.6684 27.8255 28.598 27.6557 28.4728 27.5306L22.2768 21.3359L28.4728 15.1412Z" fill="#BABABA"/>
</svg>
