<svg width="164" height="164" viewBox="0 0 164 164" fill="none" xmlns="http://www.w3.org/2000/svg">
<rect width="164" height="164" fill="#242424"/>
<path d="M91.8638 99.9081C91.8638 98.3453 92.4846 96.8466 93.5897 95.7415C94.6947 94.6364 96.1935 94.0156 97.7563 94.0156H110.383V99.7398C110.383 101.347 109.745 102.889 108.608 104.025C107.471 105.162 105.93 105.801 104.322 105.801H97.7563C96.1935 105.801 94.6947 105.18 93.5897 104.075C92.4846 102.97 91.8638 101.471 91.8638 99.9081ZM51.458 106.642C51.458 105.08 52.0788 103.581 53.1839 102.476C54.2889 101.371 55.7877 100.75 57.3505 100.75H68.2938V106.474C68.2938 107.27 68.137 108.058 67.8324 108.793C67.5278 109.529 67.0814 110.197 66.5186 110.76C65.9558 111.323 65.2876 111.769 64.5523 112.074C63.8169 112.378 63.0288 112.535 62.2329 112.535H57.3505C55.7877 112.535 54.2889 111.914 53.1839 110.809C52.0788 109.704 51.458 108.205 51.458 106.642Z" stroke="#A6A6A6" stroke-width="3.32754" stroke-linejoin="round"/>
<path d="M68.2937 72.2066L110.383 62.2415M68.2937 105.804V58.6639L110.383 48.5625V98.5512" stroke="#A6A6A6" stroke-width="3.32754" stroke-linecap="round" stroke-linejoin="round"/>
</svg>
