<svg width="48" height="48" viewBox="0 0 48 48" fill="none" xmlns="http://www.w3.org/2000/svg">
<path d="M17.8286 0C22.557 0 27.0918 1.87836 30.4353 5.22187C33.7788 8.56537 35.6571 13.1001 35.6571 17.8286C35.6571 22.2446 34.0389 26.304 31.3783 29.4309L32.1189 30.1714H34.2857L48 43.8857L43.8857 48L30.1714 34.2857V32.1189L29.4309 31.3783C26.1958 34.1397 22.0819 35.6569 17.8286 35.6571C13.1001 35.6571 8.56537 33.7788 5.22187 30.4353C1.87836 27.0918 0 22.557 0 17.8286C0 13.1001 1.87836 8.56537 5.22187 5.22187C8.56537 1.87836 13.1001 0 17.8286 0ZM17.8286 5.48571C10.9714 5.48571 5.48571 10.9714 5.48571 17.8286C5.48571 24.6857 10.9714 30.1714 17.8286 30.1714C24.6857 30.1714 30.1714 24.6857 30.1714 17.8286C30.1714 10.9714 24.6857 5.48571 17.8286 5.48571Z" fill="white"/>
</svg>
